<?xml version="1.0" encoding="utf-8"?>
<!-- Generator: Adobe Illustrator 16.0.0, SVG Export Plug-In . SVG Version: 6.00 Build 0)  -->
<!DOCTYPE svg PUBLIC "-//W3C//DTD SVG 1.1//EN" "http://www.w3.org/Graphics/SVG/1.1/DTD/svg11.dtd">
<svg version="1.1" id="Layer_1" xmlns="http://www.w3.org/2000/svg" xmlns:xlink="http://www.w3.org/1999/xlink" x="0px" y="0px"
	 width="48px" height="48px" viewBox="0 0 48 48" enable-background="new 0 0 48 48" xml:space="preserve">
<path d="M41,16.342V8.496l0,0l0,0h-6.5V4.875H41c0.8,0,1.5,0.362,2.1,1.086C43.7,6.686,44,7.531,44,8.496v7.846H41z M4,16.342V8.496
	c0-0.965,0.3-1.811,0.9-2.535C5.5,5.237,6.2,4.875,7,4.875h6.5v3.621H7l0,0l0,0v7.846H4z M34.5,43.5v-3.621H41l0,0l0,0v-7.846h3
	v7.846c0,0.966-0.3,1.811-0.9,2.534C42.5,43.138,41.8,43.5,41,43.5H34.5z M7,43.5c-0.8,0-1.5-0.362-2.1-1.087
	C4.3,41.689,4,40.845,4,39.879v-7.846h3v7.846l0,0l0,0h6.5V43.5H7z M10,36.258V12.117h28v24.141H10z M13,32.637h22V15.738H13V32.637
	z M13,32.637V15.738V32.637z"/>
</svg>
