<svg id="my_location" xmlns="http://www.w3.org/2000/svg" width="50" height="50" viewBox="0 0 50 50">
  <path id="패스_96" data-name="패스 96" d="M0,0H50V50H0Z" fill="none"/>
  <path id="패스_97" data-name="패스 97" d="M23.03,15.019a8.011,8.011,0,1,0,8.011,8.011A8.009,8.009,0,0,0,23.03,15.019Zm17.9,6.008a18.013,18.013,0,0,0-15.9-15.9V1H21.027V5.126a18.013,18.013,0,0,0-15.9,15.9H1v4.005H5.126a18.013,18.013,0,0,0,15.9,15.9V45.06h4.005V40.934a18.013,18.013,0,0,0,15.9-15.9H45.06V21.027ZM23.03,37.049A14.019,14.019,0,1,1,37.049,23.03,14.009,14.009,0,0,1,23.03,37.049Z" transform="translate(1.97 1.97)" fill="#462411"/>
</svg>
