<svg xmlns="http://www.w3.org/2000/svg" width="50" height="50" viewBox="0 0 50 50">
  <g id="qr_code" transform="translate(0 0.024)">
    <g id="그룹_249" data-name="그룹 249">
      <rect id="사각형_168" data-name="사각형 168" width="50" height="50" transform="translate(0 -0.024)" fill="none"/>
    </g>
    <path id="패스_99" data-name="패스 99" d="M27.988,40.482H23.823V36.317h4.165ZM23.823,25.906H19.659V36.317h4.165Zm16.659-4.165H36.317V30.07h4.165Zm-4.165-4.165H32.152v4.165h4.165ZM11.329,21.741H7.165v4.165h4.165ZM7.165,17.576H3v4.165H7.165ZM21.741,7.165h4.165V3H21.741ZM6.123,6.123V12.37H12.37V6.123Zm9.37,9.37H3V3H15.494ZM6.123,31.111v6.247H12.37V31.111Zm9.37,9.37H3V27.988H15.494ZM31.111,6.123V12.37h6.247V6.123Zm9.37,9.37H27.988V3H40.482ZM36.317,36.317V30.07H27.988v4.165h4.165v6.247h8.329V36.317ZM32.152,21.741H23.823v4.165h8.329Zm-8.329-4.165H11.329v4.165h4.165v4.165h4.165V21.741h4.165Zm2.082-2.082V11.329H21.741V7.165H17.576v8.329Zm-15.1-7.809H7.685v3.123h3.123Zm0,24.988H7.685V35.8h3.123ZM35.8,7.685H32.673v3.123H35.8Z" transform="translate(3.247 3.247)" fill="#462411"/>
  </g>
</svg>
