<?xml version="1.0" encoding="utf-8"?>
<!-- Generator: Adobe Illustrator 16.0.0, SVG Export Plug-In . SVG Version: 6.00 Build 0)  -->
<!DOCTYPE svg PUBLIC "-//W3C//DTD SVG 1.1//EN" "http://www.w3.org/Graphics/SVG/1.1/DTD/svg11.dtd">
<svg version="1.1" id="Layer_1" xmlns="http://www.w3.org/2000/svg" xmlns:xlink="http://www.w3.org/1999/xlink" x="0px" y="0px"
	 width="24px" height="24px" viewBox="0 0 24 24" enable-background="new 0 0 24 24" xml:space="preserve">
<g id="그룹_265" transform="translate(-4601 -1074)">
	<rect id="사각형_177" x="4601" y="1074" fill="none" width="24" height="24"/>
	<path id="person_FILL0_wght400_GRAD0_opsz48" fill="#FFB546" d="M4613,1085.675c-1.224,0.043-2.409-0.432-3.265-1.309
		c-0.859-0.905-1.317-2.118-1.27-3.365c-0.047-1.247,0.411-2.46,1.27-3.365c0.855-0.877,2.041-1.353,3.265-1.311
		c1.225-0.043,2.41,0.432,3.266,1.309c0.859,0.905,1.316,2.118,1.27,3.365c0.047,1.247-0.41,2.46-1.27,3.365
		C4615.41,1085.241,4614.225,1085.717,4613,1085.675z M4603.325,1095.675v-2.929c-0.021-0.718,0.179-1.425,0.574-2.025
		c0.371-0.551,0.882-0.992,1.481-1.277c1.249-0.586,2.549-1.055,3.885-1.4c1.221-0.309,2.475-0.466,3.734-0.467
		c1.255,0,2.505,0.163,3.72,0.482c1.325,0.357,2.619,0.82,3.869,1.387c0.611,0.28,1.135,0.723,1.512,1.279
		c0.395,0.6,0.596,1.307,0.574,2.024v2.926H4603.325z"/>
</g>
</svg>
